<svg width="200" height="200" viewBox="0 0 200 200" xmlns="http://www.w3.org/2000/svg">
    <!-- 粽叶背景 - 增加渐变效果 -->
    <defs>
        <linearGradient id="leafGradient" x1="0%" y1="0%" x2="100%" y2="100%">
            <stop offset="0%" stop-color="#388E3C" />
            <stop offset="100%" stop-color="#2E7D32" />
        </linearGradient>
        <linearGradient id="riceGradient" x1="0%" y1="0%" x2="100%" y2="100%">
            <stop offset="0%" stop-color="#A1887F" />
            <stop offset="100%" stop-color="#8D6E63" />
        </linearGradient>
        <filter id="shadow" x="-20%" y="-20%" width="140%" height="140%">
            <feDropShadow dx="2" dy="4" stdDeviation="4" flood-opacity="0.3" />
        </filter>
    </defs>
    
    <!-- 粽叶背景 - 多层次 -->
    <path d="M100,20 L40,120 L100,180 L160,120 Z" fill="url(#leafGradient)" filter="url(#shadow)" />
    <path d="M105,25 L50,115 L105,170 L155,115 Z" fill="#43A047" opacity="0.7" />
    
    <!-- 粽叶纹理 - 更丰富的纹理线条 -->
    <path d="M100,20 L70,70 M100,20 L130,70" stroke="#388E3C" stroke-width="1.5" stroke-linecap="round" />
    <path d="M40,120 L80,120 M160,120 L120,120" stroke="#388E3C" stroke-width="1.5" stroke-linecap="round" />
    <path d="M60,80 L140,80 M70,100 L130,100 M80,140 L120,140" stroke="#2E7D32" stroke-width="1" stroke-linecap="round" opacity="0.6" />
    
    <!-- 粽子主体 - 添加纹理和层次 -->
    <path d="M90,40 L60,110 L100,160 L140,110 Z" fill="url(#riceGradient)" />
    
    <!-- 粽子内部纹理 - 模拟糯米质感 -->
    <path d="M85,60 L75,100 M95,60 L85,100 M105,60 L95,100 M115,60 L105,100" 
          stroke="#BDBDBD" stroke-width="0.8" stroke-linecap="round" opacity="0.3" />
    <path d="M80,110 L100,140 M100,140 L120,110" 
          stroke="#BDBDBD" stroke-width="0.8" stroke-linecap="round" opacity="0.3" />
    
    <!-- 粽绳 - 更精细的绳子 -->
    <path d="M100,20 C80,60 60,80 40,120" stroke="#D7CCC8" stroke-width="3" stroke-linecap="round" />
    <path d="M100,20 C120,60 140,80 160,120" stroke="#D7CCC8" stroke-width="3" stroke-linecap="round" />
    
    <!-- 绳子纹理 - 增加绳子的细节 -->
    <path d="M100,20 C83,55 65,77 48,113" stroke="#BCAAA4" stroke-width="1" stroke-linecap="round" />
    <path d="M100,20 C117,55 135,77 152,113" stroke="#BCAAA4" stroke-width="1" stroke-linecap="round" />
    
    <!-- 绳结 -->
    <circle cx="100" cy="20" r="5" fill="#A1887F" />
    <path d="M97,17 L103,23 M97,23 L103,17" stroke="#8D6E63" stroke-width="1" />
    
    <!-- 高光效果 - 增强立体感 -->
    <path d="M90,40 L100,60 L110,40" fill="#BCAAA4" opacity="0.7" />
    <path d="M75,70 L100,100 L125,70" fill="#D7CCC8" opacity="0.4" />
    
    <!-- 阴影效果 - 增强立体感 -->
    <path d="M60,110 L100,160 L140,110" fill="#5D4037" opacity="0.3" />
    
    <!-- 装饰元素 - 粽叶尖角 -->
    <path d="M100,180 L95,190 M100,180 L105,190" stroke="#388E3C" stroke-width="2" stroke-linecap="round" />
</svg>